<svg width="17" height="16" viewBox="0 0 17 16" fill="none" xmlns="http://www.w3.org/2000/svg">
<path d="M2.5 6.66667H14.5M2.5 9.33333H14.5M8.5 6.66667V12M3.83333 12H13.1667C13.5203 12 13.8594 11.8595 14.1095 11.6095C14.3595 11.3594 14.5 11.0203 14.5 10.6667V5.33333C14.5 4.97971 14.3595 4.64057 14.1095 4.39052C13.8594 4.14048 13.5203 4 13.1667 4H3.83333C3.47971 4 3.14057 4.14048 2.89052 4.39052C2.64048 4.64057 2.5 4.97971 2.5 5.33333V10.6667C2.5 11.0203 2.64048 11.3594 2.89052 11.6095C3.14057 11.8595 3.47971 12 3.83333 12Z" stroke="black" stroke-linecap="round" stroke-linejoin="round"/>
</svg>
