<svg width="13" height="10" viewBox="0 0 13 10" fill="none" xmlns="http://www.w3.org/2000/svg">
<path d="M0.5 3.66667H12.5M0.5 6.33333H12.5M6.5 3.66667V9M1.83333 9H11.1667C11.5203 9 11.8594 8.85952 12.1095 8.60948C12.3595 8.35943 12.5 8.02029 12.5 7.66667V2.33333C12.5 1.97971 12.3595 1.64057 12.1095 1.39052C11.8594 1.14048 11.5203 1 11.1667 1H1.83333C1.47971 1 1.14057 1.14048 0.890524 1.39052C0.640476 1.64057 0.5 1.97971 0.5 2.33333V7.66667C0.5 8.02029 0.640476 8.35943 0.890524 8.60948C1.14057 8.85952 1.47971 9 1.83333 9Z" stroke="black" stroke-linecap="round" stroke-linejoin="round"/>
</svg>
