<svg width="33" height="32" viewBox="0 0 33 32" fill="none" xmlns="http://www.w3.org/2000/svg">
<path d="M28.1667 31V4.33333C28.1667 3.44928 27.8155 2.60143 27.1904 1.97631C26.5652 1.35119 25.7174 1 24.8333 1H8.16667C7.28261 1 6.43477 1.35119 5.80964 1.97631C5.18452 2.60143 4.83333 3.44928 4.83333 4.33333V31M28.1667 31H4.83333M28.1667 31H31.5M28.1667 31H19.8333M4.83333 31H1.5M4.83333 31H13.1667M19.8333 31V22.6667C19.8333 22.2246 19.6577 21.8007 19.3452 21.4882C19.0326 21.1756 18.6087 21 18.1667 21H14.8333C14.3913 21 13.9674 21.1756 13.6548 21.4882C13.3423 21.8007 13.1667 22.2246 13.1667 22.6667V31M19.8333 31H13.1667M11.5 7.66667H13.1667M11.5 14.3333H13.1667M19.8333 7.66667H21.5M19.8333 14.3333H21.5" stroke="black" stroke-width="2" stroke-linecap="round" stroke-linejoin="round"/>
</svg>
