<svg width="33" height="32" viewBox="0 0 33 32" fill="none" xmlns="http://www.w3.org/2000/svg">
<path d="M10.9733 18.2367C11.31 17.5633 11.5 16.8033 11.5 16C11.5 15.1967 11.31 14.4367 10.9733 13.7633M10.9733 18.2367C10.4695 19.244 9.64031 20.0517 8.62013 20.5289C7.59995 21.0062 6.44852 21.125 5.35237 20.8662C4.25623 20.6073 3.27959 19.986 2.58066 19.1028C1.88173 18.2196 1.50146 17.1263 1.50146 16C1.50146 14.8737 1.88173 13.7804 2.58066 12.8972C3.27959 12.014 4.25623 11.3927 5.35237 11.1338C6.44852 10.875 7.59995 10.9938 8.62013 11.4711C9.64031 11.9483 10.4695 12.756 10.9733 13.7633M10.9733 18.2367L22.0266 23.7633M10.9733 13.7633L22.0266 8.23665M22.0266 23.7633C21.4334 24.9497 21.3358 26.3232 21.7553 27.5815C22.1747 28.8399 23.0769 29.8801 24.2633 30.4733C25.4497 31.0665 26.8232 31.1641 28.0815 30.7447C29.3399 30.3252 30.3801 29.4231 30.9733 28.2367C31.5665 27.0503 31.6641 25.6768 31.2447 24.4184C30.8252 23.1601 29.923 22.1199 28.7366 21.5267C28.1492 21.2329 27.5096 21.0578 26.8545 21.0112C26.1994 20.9647 25.5415 21.0476 24.9184 21.2553C23.66 21.6748 22.6198 22.5769 22.0266 23.7633ZM22.0266 8.23665C22.3204 8.82399 22.7269 9.34772 23.223 9.77795C23.7191 10.2082 24.2952 10.5365 24.9182 10.7441C25.5412 10.9517 26.199 11.0346 26.854 10.988C27.509 10.9414 28.1485 10.7662 28.7358 10.4725C29.3231 10.1788 29.8469 9.77223 30.2771 9.2761C30.7073 8.77997 31.0356 8.20396 31.2432 7.58096C31.4508 6.95796 31.5337 6.30016 31.4871 5.64513C31.4405 4.9901 31.2654 4.35066 30.9716 3.76332C30.3784 2.57714 29.3383 1.67519 28.0801 1.25589C26.8219 0.83659 25.4486 0.934286 24.2625 1.52749C23.0763 2.12069 22.1743 3.1608 21.755 4.41901C21.3357 5.67723 21.4334 7.05047 22.0266 8.23665Z" stroke="black" stroke-width="2" stroke-linecap="round" stroke-linejoin="round"/>
</svg>
