<svg width="27" height="32" viewBox="0 0 27 32" fill="none" xmlns="http://www.w3.org/2000/svg">
<path d="M8.50016 16H18.5002M8.50016 22.6667H18.5002M21.8335 31H5.16683C4.28277 31 3.43493 30.6488 2.80981 30.0237C2.18469 29.3986 1.8335 28.5507 1.8335 27.6667V4.33333C1.8335 3.44928 2.18469 2.60143 2.80981 1.97631C3.43493 1.35119 4.28277 1 5.16683 1H14.4768C14.9188 1.00009 15.3427 1.17575 15.6552 1.48833L24.6785 10.5117C24.9911 10.8242 25.1667 11.248 25.1668 11.69V27.6667C25.1668 28.5507 24.8156 29.3986 24.1905 30.0237C23.5654 30.6488 22.7176 31 21.8335 31Z" stroke="black" stroke-width="2" stroke-linecap="round" stroke-linejoin="round"/>
</svg>
