<svg width="31" height="30" viewBox="0 0 31 30" fill="none" xmlns="http://www.w3.org/2000/svg">
<g clip-path="url(#clip0_3200_466)">
<path d="M11.75 15H19.25M11.75 20H19.25M21.75 26.25H9.25C8.58696 26.25 7.95107 25.9866 7.48223 25.5178C7.01339 25.0489 6.75 24.413 6.75 23.75V6.25C6.75 5.58696 7.01339 4.95107 7.48223 4.48223C7.95107 4.01339 8.58696 3.75 9.25 3.75H16.2325C16.564 3.75007 16.8819 3.88181 17.1163 4.11625L23.8838 10.8837C24.1182 11.1181 24.2499 11.436 24.25 11.7675V23.75C24.25 24.413 23.9866 25.0489 23.5178 25.5178C23.0489 25.9866 22.413 26.25 21.75 26.25Z" stroke="#7D8592" stroke-width="2" stroke-linecap="round" stroke-linejoin="round"/>
</g>
<defs>
<clipPath id="clip0_3200_466">
<rect width="30" height="30" fill="white" transform="translate(0.5)"/>
</clipPath>
</defs>
</svg>
