<svg width="31" height="30" viewBox="0 0 31 30" fill="none" xmlns="http://www.w3.org/2000/svg">
<g clip-path="url(#clip0_3200_475)">
<path d="M11.75 17.5L19.25 10M12.375 10.625H12.3875M18.625 16.875H18.6375M24.25 26.25V6.25C24.25 5.58696 23.9866 4.95107 23.5178 4.48223C23.0489 4.01339 22.413 3.75 21.75 3.75H9.25C8.58696 3.75 7.95107 4.01339 7.48223 4.48223C7.01339 4.95107 6.75 5.58696 6.75 6.25V26.25L11.125 23.75L15.5 26.25L19.875 23.75L24.25 26.25ZM13 10.625C13 10.7908 12.9342 10.9497 12.8169 11.0669C12.6997 11.1842 12.5408 11.25 12.375 11.25C12.2092 11.25 12.0503 11.1842 11.9331 11.0669C11.8158 10.9497 11.75 10.7908 11.75 10.625C11.75 10.4592 11.8158 10.3003 11.9331 10.1831C12.0503 10.0658 12.2092 10 12.375 10C12.5408 10 12.6997 10.0658 12.8169 10.1831C12.9342 10.3003 13 10.4592 13 10.625ZM19.25 16.875C19.25 17.0408 19.1842 17.1997 19.0669 17.3169C18.9497 17.4342 18.7908 17.5 18.625 17.5C18.4592 17.5 18.3003 17.4342 18.1831 17.3169C18.0658 17.1997 18 17.0408 18 16.875C18 16.7092 18.0658 16.5503 18.1831 16.4331C18.3003 16.3158 18.4592 16.25 18.625 16.25C18.7908 16.25 18.9497 16.3158 19.0669 16.4331C19.1842 16.5503 19.25 16.7092 19.25 16.875Z" stroke="#7D8592" stroke-width="2" stroke-linecap="round" stroke-linejoin="round"/>
</g>
<defs>
<clipPath id="clip0_3200_475">
<rect width="30" height="30" fill="white" transform="translate(0.5)"/>
</clipPath>
</defs>
</svg>
