<svg width="31" height="30" viewBox="0 0 31 30" fill="none" xmlns="http://www.w3.org/2000/svg">
<g clip-path="url(#clip0_3104_9418)">
<path d="M24.25 26.25V6.25C24.25 5.58696 23.9866 4.95107 23.5178 4.48223C23.0489 4.01339 22.413 3.75 21.75 3.75H9.25C8.58696 3.75 7.95107 4.01339 7.48223 4.48223C7.01339 4.95107 6.75 5.58696 6.75 6.25V26.25M24.25 26.25H6.75M24.25 26.25H26.75M24.25 26.25H18M6.75 26.25H4.25M6.75 26.25H13M18 26.25V20C18 19.6685 17.8683 19.3505 17.6339 19.1161C17.3995 18.8817 17.0815 18.75 16.75 18.75H14.25C13.9185 18.75 13.6005 18.8817 13.3661 19.1161C13.1317 19.3505 13 19.6685 13 20V26.25M18 26.25H13M11.75 8.75H13M11.75 13.75H13M18 8.75H19.25M18 13.75H19.25" stroke="#7D8592" stroke-width="2" stroke-linecap="round" stroke-linejoin="round"/>
</g>
<defs>
<clipPath id="clip0_3104_9418">
<rect width="30" height="30" fill="white" transform="translate(0.5)"/>
</clipPath>
</defs>
</svg>
