<svg class="logo" width="116" height="19" viewBox="0 0 116 19" fill="none"
   xmlns="http://www.w3.org/2000/svg">
   <path
      d="M8.675 18.25C7.025 18.25 5.60833 18 4.425 17.5C3.24167 16.9833 2.31667 16.2167 1.65 15.2C0.983333 14.1833 0.625 12.925 0.575 11.425C0.558333 10.725 0.55 9.975 0.55 9.175C0.55 8.35833 0.558333 7.59167 0.575 6.875C0.625 5.425 0.983333 4.20833 1.65 3.225C2.33333 2.24167 3.275 1.5 4.475 1C5.675 0.499999 7.075 0.249999 8.675 0.249999C9.95833 0.249999 11.1 0.399999 12.1 0.699999C13.1 0.999999 13.95 1.40833 14.65 1.925C15.3667 2.44167 15.9083 3.025 16.275 3.675C16.6583 4.30833 16.8583 4.96667 16.875 5.65C16.875 5.8 16.8167 5.93333 16.7 6.05C16.6 6.15 16.475 6.2 16.325 6.2H11.725C11.5583 6.2 11.425 6.175 11.325 6.125C11.225 6.05833 11.1333 5.975 11.05 5.875C10.9667 5.70833 10.8333 5.51667 10.65 5.3C10.4833 5.08333 10.2417 4.9 9.925 4.75C9.60833 4.58333 9.19167 4.5 8.675 4.5C7.89167 4.5 7.28333 4.7 6.85 5.1C6.41667 5.5 6.18333 6.13333 6.15 7C6.1 8.4 6.1 9.83333 6.15 11.3C6.18333 12.25 6.425 12.9417 6.875 13.375C7.34167 13.7917 7.96667 14 8.75 14C9.26667 14 9.725 13.9167 10.125 13.75C10.5417 13.5833 10.8667 13.325 11.1 12.975C11.3333 12.6083 11.45 12.1417 11.45 11.575V11.325H9.675C9.49167 11.325 9.33333 11.2583 9.2 11.125C9.08333 10.9917 9.025 10.8417 9.025 10.675V8.35C9.025 8.16667 9.08333 8.01667 9.2 7.9C9.33333 7.76667 9.49167 7.7 9.675 7.7H16.25C16.4333 7.7 16.5917 7.76667 16.725 7.9C16.8583 8.01667 16.925 8.16667 16.925 8.35V11.4C16.925 12.8667 16.575 14.1083 15.875 15.125C15.175 16.1417 14.2083 16.9167 12.975 17.45C11.7417 17.9833 10.3083 18.25 8.675 18.25ZM23.899 18C23.7157 18 23.5574 17.9417 23.424 17.825C23.3074 17.6917 23.249 17.5333 23.249 17.35V12.2L17.549 1.275C17.5324 1.24167 17.5157 1.20833 17.499 1.175C17.4824 1.125 17.474 1.08333 17.474 1.05C17.474 0.899999 17.524 0.774999 17.624 0.675C17.7407 0.558332 17.874 0.499999 18.024 0.499999H21.924C22.224 0.499999 22.449 0.574999 22.599 0.724999C22.749 0.874999 22.849 0.991666 22.899 1.075L25.949 6.825L28.999 1.075C29.0324 0.991666 29.124 0.874999 29.274 0.724999C29.424 0.574999 29.649 0.499999 29.949 0.499999H33.874C34.0074 0.499999 34.124 0.558332 34.224 0.675C34.3407 0.774999 34.399 0.899999 34.399 1.05C34.399 1.08333 34.3907 1.125 34.374 1.175C34.374 1.20833 34.3657 1.24167 34.349 1.275L28.624 12.2V17.35C28.624 17.5333 28.5574 17.6917 28.424 17.825C28.3074 17.9417 28.1574 18 27.974 18H23.899ZM36.8568 18C36.6735 18 36.5152 17.9417 36.3818 17.825C36.2485 17.6917 36.1818 17.5333 36.1818 17.35V1.15C36.1818 0.966665 36.2485 0.816665 36.3818 0.699999C36.5152 0.566666 36.6735 0.499999 36.8568 0.499999H40.1818C40.4818 0.499999 40.7068 0.583332 40.8568 0.749999C41.0068 0.916666 41.1068 1.03333 41.1568 1.1L45.1568 8.05L49.1568 1.1C49.2068 1.03333 49.3068 0.916666 49.4568 0.749999C49.6068 0.583332 49.8318 0.499999 50.1318 0.499999H53.4568C53.6402 0.499999 53.7902 0.566666 53.9068 0.699999C54.0402 0.816665 54.1068 0.966665 54.1068 1.15V17.35C54.1068 17.5333 54.0402 17.6917 53.9068 17.825C53.7902 17.9417 53.6402 18 53.4568 18H49.7068C49.5235 18 49.3652 17.9417 49.2318 17.825C49.1152 17.6917 49.0568 17.5333 49.0568 17.35V9.25L46.8068 13.2C46.7235 13.3333 46.6152 13.4667 46.4818 13.6C46.3485 13.7333 46.1568 13.8 45.9068 13.8H44.3818C44.1485 13.8 43.9652 13.7333 43.8318 13.6C43.6985 13.4667 43.5902 13.3333 43.5068 13.2L41.2568 9.25V17.35C41.2568 17.5333 41.1902 17.6917 41.0568 17.825C40.9402 17.9417 40.7902 18 40.6068 18H36.8568Z"
      fill="#3F8CFF" />
   <path
      d="M69.7572 18.25C68.1739 18.25 66.7906 18.0083 65.6072 17.525C64.4239 17.025 63.4906 16.275 62.8072 15.275C62.1406 14.275 61.7739 13.0083 61.7072 11.475C61.6906 10.7917 61.6822 10.0583 61.6822 9.275C61.6822 8.49167 61.6906 7.74167 61.7072 7.025C61.7739 5.525 62.1489 4.275 62.8322 3.275C63.5322 2.25833 64.4739 1.5 65.6572 1C66.8572 0.499999 68.2239 0.249999 69.7572 0.249999C70.8572 0.249999 71.8822 0.383333 72.8322 0.65C73.7989 0.9 74.6572 1.29167 75.4072 1.825C76.1572 2.34167 76.7489 2.99167 77.1822 3.775C77.6156 4.54167 77.8406 5.44167 77.8572 6.475C77.8572 6.625 77.7989 6.75 77.6822 6.85C77.5822 6.95 77.4572 7 77.3072 7H73.0822C72.8322 7 72.6489 6.95 72.5322 6.85C72.4156 6.75 72.3156 6.575 72.2322 6.325C72.0156 5.60833 71.6989 5.125 71.2822 4.875C70.8656 4.625 70.3572 4.5 69.7572 4.5C69.0239 4.5 68.4406 4.7 68.0072 5.1C67.5739 5.48333 67.3406 6.16667 67.3072 7.15C67.2572 8.51667 67.2572 9.91667 67.3072 11.35C67.3406 12.3333 67.5739 13.025 68.0072 13.425C68.4406 13.8083 69.0239 14 69.7572 14C70.3572 14 70.8656 13.8667 71.2822 13.6C71.7156 13.3333 72.0322 12.8583 72.2322 12.175C72.2989 11.9083 72.3906 11.7333 72.5072 11.65C72.6406 11.55 72.8322 11.5 73.0822 11.5H77.3072C77.4572 11.5 77.5822 11.55 77.6822 11.65C77.7989 11.75 77.8572 11.875 77.8572 12.025C77.8406 13.0583 77.6156 13.9667 77.1822 14.75C76.7489 15.5167 76.1572 16.1667 75.4072 16.7C74.6572 17.2167 73.7989 17.6083 72.8322 17.875C71.8822 18.125 70.8572 18.25 69.7572 18.25ZM80.8016 18C80.6349 18 80.4849 17.9417 80.3516 17.825C80.2182 17.6917 80.1516 17.5333 80.1516 17.35V1.15C80.1516 0.966665 80.2182 0.816665 80.3516 0.699999C80.4849 0.566666 80.6349 0.499999 80.8016 0.499999H87.9266C90.1932 0.499999 91.9682 1.01667 93.2516 2.05C94.5516 3.08333 95.2016 4.525 95.2016 6.375C95.2016 7.54167 94.9349 8.53333 94.4016 9.35C93.8682 10.1667 93.1682 10.8083 92.3016 11.275L95.5516 17.175C95.6016 17.275 95.6266 17.3667 95.6266 17.45C95.6266 17.6 95.5766 17.7333 95.4766 17.85C95.3766 17.95 95.2516 18 95.1016 18H90.8766C90.5599 18 90.3182 17.925 90.1516 17.775C89.9849 17.6083 89.8766 17.4583 89.8266 17.325L87.3266 12.175H85.5266V17.35C85.5266 17.5333 85.4599 17.6917 85.3266 17.825C85.2099 17.9417 85.0599 18 84.8766 18H80.8016ZM85.5266 8.05H87.9016C88.4849 8.05 88.9182 7.89167 89.2016 7.575C89.4849 7.24167 89.6266 6.83333 89.6266 6.35C89.6266 5.85 89.4849 5.425 89.2016 5.075C88.9349 4.725 88.5016 4.55 87.9016 4.55H85.5266V8.05ZM98.5023 18C98.319 18 98.1607 17.9417 98.0273 17.825C97.894 17.6917 97.8273 17.5333 97.8273 17.35V1.15C97.8273 0.966665 97.894 0.816665 98.0273 0.699999C98.1607 0.566666 98.319 0.499999 98.5023 0.499999H101.827C102.127 0.499999 102.352 0.583332 102.502 0.749999C102.652 0.916666 102.752 1.03333 102.802 1.1L106.802 8.05L110.802 1.1C110.852 1.03333 110.952 0.916666 111.102 0.749999C111.252 0.583332 111.477 0.499999 111.777 0.499999H115.102C115.286 0.499999 115.436 0.566666 115.552 0.699999C115.686 0.816665 115.752 0.966665 115.752 1.15V17.35C115.752 17.5333 115.686 17.6917 115.552 17.825C115.436 17.9417 115.286 18 115.102 18H111.352C111.169 18 111.011 17.9417 110.877 17.825C110.761 17.6917 110.702 17.5333 110.702 17.35V9.25L108.452 13.2C108.369 13.3333 108.261 13.4667 108.127 13.6C107.994 13.7333 107.802 13.8 107.552 13.8H106.027C105.794 13.8 105.611 13.7333 105.477 13.6C105.344 13.4667 105.236 13.3333 105.152 13.2L102.902 9.25V17.35C102.902 17.5333 102.836 17.6917 102.702 17.825C102.586 17.9417 102.436 18 102.252 18H98.5023Z"
      fill="#BFBFBF" />
</svg>