<svg width="35" height="19" viewBox="0 0 35 19" fill="none" xmlns="http://www.w3.org/2000/svg">
<path d="M8.175 18.25C6.525 18.25 5.10833 18 3.925 17.5C2.74167 16.9833 1.81667 16.2167 1.15 15.2C0.483333 14.1833 0.125 12.925 0.075 11.425C0.0583334 10.725 0.0500001 9.975 0.0500001 9.175C0.0500001 8.35833 0.0583334 7.59167 0.075 6.875C0.125 5.425 0.483333 4.20833 1.15 3.225C1.83333 2.24167 2.775 1.5 3.975 1C5.175 0.499999 6.575 0.249999 8.175 0.249999C9.45833 0.249999 10.6 0.399999 11.6 0.699999C12.6 0.999999 13.45 1.40833 14.15 1.925C14.8667 2.44167 15.4083 3.025 15.775 3.675C16.1583 4.30833 16.3583 4.96667 16.375 5.65C16.375 5.8 16.3167 5.93333 16.2 6.05C16.1 6.15 15.975 6.2 15.825 6.2H11.225C11.0583 6.2 10.925 6.175 10.825 6.125C10.725 6.05833 10.6333 5.975 10.55 5.875C10.4667 5.70833 10.3333 5.51667 10.15 5.3C9.98333 5.08333 9.74167 4.9 9.425 4.75C9.10833 4.58333 8.69167 4.5 8.175 4.5C7.39167 4.5 6.78333 4.7 6.35 5.1C5.91667 5.5 5.68333 6.13333 5.65 7C5.6 8.4 5.6 9.83333 5.65 11.3C5.68333 12.25 5.925 12.9417 6.375 13.375C6.84167 13.7917 7.46667 14 8.25 14C8.76667 14 9.225 13.9167 9.625 13.75C10.0417 13.5833 10.3667 13.325 10.6 12.975C10.8333 12.6083 10.95 12.1417 10.95 11.575V11.325H9.175C8.99167 11.325 8.83333 11.2583 8.7 11.125C8.58333 10.9917 8.525 10.8417 8.525 10.675V8.35C8.525 8.16667 8.58333 8.01667 8.7 7.9C8.83333 7.76667 8.99167 7.7 9.175 7.7H15.75C15.9333 7.7 16.0917 7.76667 16.225 7.9C16.3583 8.01667 16.425 8.16667 16.425 8.35V11.4C16.425 12.8667 16.075 14.1083 15.375 15.125C14.675 16.1417 13.7083 16.9167 12.475 17.45C11.2417 17.9833 9.80833 18.25 8.175 18.25Z" fill="#3F8CFF"/>
<path d="M26.5082 18.25C24.9249 18.25 23.5415 18.0083 22.3582 17.525C21.1749 17.025 20.2415 16.275 19.5582 15.275C18.8915 14.275 18.5249 13.0083 18.4582 11.475C18.4415 10.7917 18.4332 10.0583 18.4332 9.275C18.4332 8.49167 18.4415 7.74167 18.4582 7.025C18.5249 5.525 18.8999 4.275 19.5832 3.275C20.2832 2.25833 21.2249 1.5 22.4082 1C23.6082 0.499999 24.9749 0.249999 26.5082 0.249999C27.6082 0.249999 28.6332 0.383333 29.5832 0.65C30.5499 0.9 31.4082 1.29167 32.1582 1.825C32.9082 2.34167 33.4999 2.99167 33.9332 3.775C34.3665 4.54167 34.5915 5.44167 34.6082 6.475C34.6082 6.625 34.5499 6.75 34.4332 6.85C34.3332 6.95 34.2082 7 34.0582 7H29.8332C29.5832 7 29.3999 6.95 29.2832 6.85C29.1665 6.75 29.0665 6.575 28.9832 6.325C28.7665 5.60833 28.4499 5.125 28.0332 4.875C27.6165 4.625 27.1082 4.5 26.5082 4.5C25.7749 4.5 25.1915 4.7 24.7582 5.1C24.3249 5.48333 24.0915 6.16667 24.0582 7.15C24.0082 8.51667 24.0082 9.91667 24.0582 11.35C24.0915 12.3333 24.3249 13.025 24.7582 13.425C25.1915 13.8083 25.7749 14 26.5082 14C27.1082 14 27.6165 13.8667 28.0332 13.6C28.4665 13.3333 28.7832 12.8583 28.9832 12.175C29.0499 11.9083 29.1415 11.7333 29.2582 11.65C29.3915 11.55 29.5832 11.5 29.8332 11.5H34.0582C34.2082 11.5 34.3332 11.55 34.4332 11.65C34.5499 11.75 34.6082 11.875 34.6082 12.025C34.5915 13.0583 34.3665 13.9667 33.9332 14.75C33.4999 15.5167 32.9082 16.1667 32.1582 16.7C31.4082 17.2167 30.5499 17.6083 29.5832 17.875C28.6332 18.125 27.6082 18.25 26.5082 18.25Z" fill="#BFBFBF"/>
</svg>
