<svg width="33" height="32" viewBox="0 0 33 32" fill="none" xmlns="http://www.w3.org/2000/svg">
<path d="M19.2917 3.195C18.5817 0.268333 14.4183 0.268333 13.7083 3.195C13.2483 5.08667 11.0817 5.98333 9.42167 4.97C6.84833 3.40333 3.905 6.34833 5.47167 8.92C5.70717 9.30625 5.84815 9.74266 5.88311 10.1937C5.91808 10.6447 5.84606 11.0976 5.67291 11.5156C5.49976 11.9335 5.23037 12.3047 4.88667 12.5988C4.54296 12.893 4.13467 13.1018 3.695 13.2083C0.768333 13.9183 0.768333 18.0817 3.695 18.7917C4.13427 18.8985 4.54214 19.1075 4.88545 19.4016C5.22877 19.6957 5.49783 20.0667 5.67079 20.4844C5.84374 20.9021 5.91569 21.3547 5.88081 21.8054C5.84592 22.2561 5.70517 22.6922 5.47 23.0783C3.90333 25.6517 6.84833 28.595 9.42 27.0283C9.80625 26.7928 10.2427 26.6519 10.6937 26.6169C11.1447 26.5819 11.5976 26.6539 12.0156 26.8271C12.4335 27.0002 12.8047 27.2696 13.0988 27.6133C13.393 27.957 13.6018 28.3653 13.7083 28.805C14.4183 31.7317 18.5817 31.7317 19.2917 28.805C19.3985 28.3657 19.6075 27.9579 19.9016 27.6145C20.1957 27.2712 20.5667 27.0022 20.9844 26.8292C21.4021 26.6563 21.8547 26.5843 22.3054 26.6192C22.7561 26.6541 23.1922 26.7948 23.5783 27.03C26.1517 28.5967 29.095 25.6517 27.5283 23.08C27.2928 22.6937 27.1519 22.2573 27.1169 21.8063C27.0819 21.3553 27.1539 20.9024 27.3271 20.4844C27.5002 20.0665 27.7696 19.6953 28.1133 19.4012C28.457 19.107 28.8653 18.8982 29.305 18.7917C32.2317 18.0817 32.2317 13.9183 29.305 13.2083C28.8657 13.1015 28.4579 12.8925 28.1145 12.5984C27.7712 12.3043 27.5022 11.9333 27.3292 11.5156C27.1563 11.0979 27.0843 10.6453 27.1192 10.1946C27.1541 9.74389 27.2948 9.30776 27.53 8.92167C29.0967 6.34833 26.1517 3.405 23.58 4.97167C23.1937 5.20717 22.7573 5.34815 22.3063 5.38311C21.8553 5.41808 21.4024 5.34606 20.9844 5.17291C20.5665 4.99976 20.1953 4.73037 19.9012 4.38667C19.607 4.04296 19.3982 3.63467 19.2917 3.195Z" stroke="black" stroke-width="2" stroke-linecap="round" stroke-linejoin="round"/>
</svg>
