<svg width="31" height="30" viewBox="0 0 31 30" fill="none" xmlns="http://www.w3.org/2000/svg">
   <g clip-path="url(#clip0_3200_488)">
      <path
         d="M17.5938 5.39625C17.0613 3.20125 13.9387 3.20125 13.4062 5.39625C13.0612 6.815 11.4362 7.4875 10.1912 6.7275C8.26125 5.5525 6.05375 7.76125 7.22875 9.69C7.40538 9.97969 7.51111 10.307 7.53734 10.6453C7.56356 10.9835 7.50955 11.3232 7.37968 11.6367C7.24982 11.9501 7.04778 12.2285 6.79 12.4491C6.53222 12.6697 6.226 12.8264 5.89625 12.9062C3.70125 13.4387 3.70125 16.5613 5.89625 17.0938C6.2257 17.1739 6.53161 17.3306 6.78909 17.5512C7.04658 17.7718 7.24838 18.05 7.37809 18.3633C7.5078 18.6765 7.56177 19.016 7.5356 19.354C7.50944 19.6921 7.40388 20.0192 7.2275 20.3088C6.0525 22.2388 8.26125 24.4463 10.19 23.2713C10.4797 23.0946 10.807 22.9889 11.1453 22.9627C11.4835 22.9364 11.8232 22.9905 12.1367 23.1203C12.4501 23.2502 12.7285 23.4522 12.9491 23.71C13.1697 23.9678 13.3264 24.274 13.4062 24.6038C13.9387 26.7987 17.0613 26.7987 17.5938 24.6038C17.6739 24.2743 17.8306 23.9684 18.0512 23.7109C18.2718 23.4534 18.55 23.2516 18.8633 23.1219C19.1765 22.9922 19.516 22.9382 19.854 22.9644C20.1921 22.9906 20.5192 23.0961 20.8088 23.2725C22.7388 24.4475 24.9463 22.2387 23.7713 20.31C23.5946 20.0203 23.4889 19.693 23.4627 19.3547C23.4364 19.0165 23.4905 18.6768 23.6203 18.3633C23.7502 18.0499 23.9522 17.7715 24.21 17.5509C24.4678 17.3303 24.774 17.1736 25.1038 17.0938C27.2987 16.5613 27.2987 13.4387 25.1038 12.9062C24.7743 12.8261 24.4684 12.6694 24.2109 12.4488C23.9534 12.2282 23.7516 11.95 23.6219 11.6367C23.4922 11.3235 23.4382 10.984 23.4644 10.646C23.4906 10.3079 23.5961 9.98082 23.7725 9.69125C24.9475 7.76125 22.7387 5.55375 20.81 6.72875C20.5203 6.90538 20.193 7.01111 19.8547 7.03734C19.5165 7.06356 19.1768 7.00955 18.8633 6.87968C18.5499 6.74982 18.2715 6.54778 18.0509 6.29C17.8303 6.03222 17.6736 5.726 17.5938 5.39625Z"
         stroke="#7D8592" stroke-width="2" stroke-linecap="round" stroke-linejoin="round" />
      <path
         d="M18.1517 17.6517C18.8549 16.9484 19.25 15.9946 19.25 15C19.25 14.0054 18.8549 13.0516 18.1517 12.3483C17.4484 11.6451 16.4946 11.25 15.5 11.25C14.5054 11.25 13.5516 11.6451 12.8483 12.3483C12.1451 13.0516 11.75 14.0054 11.75 15C11.75 15.9946 12.1451 16.9484 12.8483 17.6517C13.5516 18.3549 14.5054 18.75 15.5 18.75C16.4946 18.75 17.4484 18.3549 18.1517 17.6517Z"
         stroke="#7D8592" stroke-width="2" stroke-linecap="round" stroke-linejoin="round" />
   </g>
   <defs>
      <clipPath id="clip0_3200_488">
         <rect width="30" height="30" fill="white" transform="translate(0.5)" />
      </clipPath>
   </defs>
</svg>