<svg width="41" height="40" viewBox="0 0 41 40" fill="none" xmlns="http://www.w3.org/2000/svg">
<g clip-path="url(#clip0_3310_3194)">
<path d="M23.2917 7.195C22.5817 4.26833 18.4183 4.26833 17.7083 7.195C17.2483 9.08667 15.0817 9.98333 13.4217 8.97C10.8483 7.40333 7.905 10.3483 9.47167 12.92C9.70717 13.3063 9.84815 13.7427 9.88311 14.1937C9.91808 14.6447 9.84606 15.0976 9.67291 15.5156C9.49976 15.9335 9.23037 16.3047 8.88667 16.5988C8.54296 16.893 8.13467 17.1018 7.695 17.2083C4.76833 17.9183 4.76833 22.0817 7.695 22.7917C8.13427 22.8985 8.54214 23.1075 8.88545 23.4016C9.22877 23.6957 9.49783 24.0667 9.67079 24.4844C9.84374 24.9021 9.91569 25.3547 9.88081 25.8054C9.84592 26.2561 9.70517 26.6922 9.47 27.0783C7.90333 29.6517 10.8483 32.595 13.42 31.0283C13.8063 30.7928 14.2427 30.6519 14.6937 30.6169C15.1447 30.5819 15.5976 30.6539 16.0156 30.8271C16.4335 31.0002 16.8047 31.2696 17.0988 31.6133C17.393 31.957 17.6018 32.3653 17.7083 32.805C18.4183 35.7317 22.5817 35.7317 23.2917 32.805C23.3985 32.3657 23.6075 31.9579 23.9016 31.6145C24.1957 31.2712 24.5667 31.0022 24.9844 30.8292C25.4021 30.6563 25.8547 30.5843 26.3054 30.6192C26.7561 30.6541 27.1922 30.7948 27.5783 31.03C30.1517 32.5967 33.095 29.6517 31.5283 27.08C31.2928 26.6937 31.1519 26.2573 31.1169 25.8063C31.0819 25.3553 31.1539 24.9024 31.3271 24.4844C31.5002 24.0665 31.7696 23.6953 32.1133 23.4012C32.457 23.107 32.8653 22.8982 33.305 22.7917C36.2317 22.0817 36.2317 17.9183 33.305 17.2083C32.8657 17.1015 32.4579 16.8925 32.1145 16.5984C31.7712 16.3043 31.5022 15.9333 31.3292 15.5156C31.1563 15.0979 31.0843 14.6453 31.1192 14.1946C31.1541 13.7439 31.2948 13.3078 31.53 12.9217C33.0967 10.3483 30.1517 7.405 27.58 8.97167C27.1937 9.20717 26.7573 9.34815 26.3063 9.38311C25.8553 9.41808 25.4024 9.34606 24.9844 9.17291C24.5665 8.99976 24.1953 8.73037 23.9012 8.38667C23.607 8.04296 23.3982 7.63467 23.2917 7.195Z" stroke="black" stroke-width="2" stroke-linecap="round" stroke-linejoin="round"/>
<path d="M24.0355 23.5355C24.9732 22.5979 25.5 21.3261 25.5 20C25.5 18.6739 24.9732 17.4021 24.0355 16.4645C23.0979 15.5268 21.8261 15 20.5 15C19.1739 15 17.9021 15.5268 16.9645 16.4645C16.0268 17.4021 15.5 18.6739 15.5 20C15.5 21.3261 16.0268 22.5979 16.9645 23.5355C17.9021 24.4732 19.1739 25 20.5 25C21.8261 25 23.0979 24.4732 24.0355 23.5355Z" stroke="black" stroke-width="2" stroke-linecap="round" stroke-linejoin="round"/>
</g>
<defs>
<clipPath id="clip0_3310_3194">
<rect width="40" height="40" fill="white" transform="translate(0.5)"/>
</clipPath>
</defs>
</svg>
