<svg width="27" height="32" viewBox="0 0 27 32" fill="none" xmlns="http://www.w3.org/2000/svg">
<path d="M8.50016 19.3333L18.5002 9.33333M9.3335 10.1667H9.35016M17.6668 18.5H17.6835M25.1668 31V4.33333C25.1668 3.44928 24.8156 2.60143 24.1905 1.97631C23.5654 1.35119 22.7176 1 21.8335 1H5.16683C4.28277 1 3.43493 1.35119 2.80981 1.97631C2.18469 2.60143 1.8335 3.44928 1.8335 4.33333V31L7.66683 27.6667L13.5002 31L19.3335 27.6667L25.1668 31ZM10.1668 10.1667C10.1668 10.3877 10.079 10.5996 9.92275 10.7559C9.76647 10.9122 9.55451 11 9.3335 11C9.11248 11 8.90052 10.9122 8.74424 10.7559C8.58796 10.5996 8.50016 10.3877 8.50016 10.1667C8.50016 9.94565 8.58796 9.73369 8.74424 9.57741C8.90052 9.42113 9.11248 9.33333 9.3335 9.33333C9.55451 9.33333 9.76647 9.42113 9.92275 9.57741C10.079 9.73369 10.1668 9.94565 10.1668 10.1667ZM18.5002 18.5C18.5002 18.721 18.4124 18.933 18.2561 19.0893C18.0998 19.2455 17.8878 19.3333 17.6668 19.3333C17.4458 19.3333 17.2339 19.2455 17.0776 19.0893C16.9213 18.933 16.8335 18.721 16.8335 18.5C16.8335 18.279 16.9213 18.067 17.0776 17.9107C17.2339 17.7545 17.4458 17.6667 17.6668 17.6667C17.8878 17.6667 18.0998 17.7545 18.2561 17.9107C18.4124 18.067 18.5002 18.279 18.5002 18.5Z" stroke="black" stroke-width="2" stroke-linecap="round" stroke-linejoin="round"/>
</svg>
