<svg width="17" height="16" viewBox="0 0 17 16" fill="none" xmlns="http://www.w3.org/2000/svg">
<path d="M6.5 11.3334V4.66671M6.5 11.3334C6.5 11.687 6.35952 12.0261 6.10948 12.2762C5.85943 12.5262 5.52029 12.6667 5.16667 12.6667H3.83333C3.47971 12.6667 3.14057 12.5262 2.89052 12.2762C2.64048 12.0261 2.5 11.687 2.5 11.3334V4.66671C2.5 4.31309 2.64048 3.97395 2.89052 3.7239C3.14057 3.47385 3.47971 3.33337 3.83333 3.33337H5.16667C5.52029 3.33337 5.85943 3.47385 6.10948 3.7239C6.35952 3.97395 6.5 4.31309 6.5 4.66671M6.5 11.3334C6.5 11.687 6.64048 12.0261 6.89052 12.2762C7.14057 12.5262 7.47971 12.6667 7.83333 12.6667H9.16667C9.52029 12.6667 9.85943 12.5262 10.1095 12.2762C10.3595 12.0261 10.5 11.687 10.5 11.3334M6.5 4.66671C6.5 4.31309 6.64048 3.97395 6.89052 3.7239C7.14057 3.47385 7.47971 3.33337 7.83333 3.33337H9.16667C9.52029 3.33337 9.85943 3.47385 10.1095 3.7239C10.3595 3.97395 10.5 4.31309 10.5 4.66671M10.5 11.3334V4.66671M10.5 11.3334C10.5 11.687 10.6405 12.0261 10.8905 12.2762C11.1406 12.5262 11.4797 12.6667 11.8333 12.6667H13.1667C13.5203 12.6667 13.8594 12.5262 14.1095 12.2762C14.3595 12.0261 14.5 11.687 14.5 11.3334V4.66671C14.5 4.31309 14.3595 3.97395 14.1095 3.7239C13.8594 3.47385 13.5203 3.33337 13.1667 3.33337H11.8333C11.4797 3.33337 11.1406 3.47385 10.8905 3.7239C10.6405 3.97395 10.5 4.31309 10.5 4.66671" stroke="black" stroke-linecap="round" stroke-linejoin="round"/>
</svg>
