<svg width="13" height="12" viewBox="0 0 13 12" fill="none" xmlns="http://www.w3.org/2000/svg">
<path d="M4.5 9.33337V2.66671M4.5 9.33337C4.5 9.687 4.35952 10.0261 4.10948 10.2762C3.85943 10.5262 3.52029 10.6667 3.16667 10.6667H1.83333C1.47971 10.6667 1.14057 10.5262 0.890524 10.2762C0.640476 10.0261 0.5 9.687 0.5 9.33337V2.66671C0.5 2.31309 0.640476 1.97395 0.890524 1.7239C1.14057 1.47385 1.47971 1.33337 1.83333 1.33337H3.16667C3.52029 1.33337 3.85943 1.47385 4.10948 1.7239C4.35952 1.97395 4.5 2.31309 4.5 2.66671M4.5 9.33337C4.5 9.687 4.64048 10.0261 4.89052 10.2762C5.14057 10.5262 5.47971 10.6667 5.83333 10.6667H7.16667C7.52029 10.6667 7.85943 10.5262 8.10948 10.2762C8.35952 10.0261 8.5 9.687 8.5 9.33337M4.5 2.66671C4.5 2.31309 4.64048 1.97395 4.89052 1.7239C5.14057 1.47385 5.47971 1.33337 5.83333 1.33337H7.16667C7.52029 1.33337 7.85943 1.47385 8.10948 1.7239C8.35952 1.97395 8.5 2.31309 8.5 2.66671M8.5 9.33337V2.66671M8.5 9.33337C8.5 9.687 8.64048 10.0261 8.89052 10.2762C9.14057 10.5262 9.47971 10.6667 9.83333 10.6667H11.1667C11.5203 10.6667 11.8594 10.5262 12.1095 10.2762C12.3595 10.0261 12.5 9.687 12.5 9.33337V2.66671C12.5 2.31309 12.3595 1.97395 12.1095 1.7239C11.8594 1.47385 11.5203 1.33337 11.1667 1.33337H9.83333C9.47971 1.33337 9.14057 1.47385 8.89052 1.7239C8.64048 1.97395 8.5 2.31309 8.5 2.66671" stroke="black" stroke-linecap="round" stroke-linejoin="round"/>
</svg>
