<svg width="37" height="30" viewBox="0 0 37 30" fill="none" xmlns="http://www.w3.org/2000/svg">
<path d="M26.8335 28.3333H35.1668V25C35.1668 23.9608 34.8429 22.9476 34.2404 22.101C33.6379 21.2544 32.7865 20.6166 31.8047 20.2762C30.823 19.9358 29.7595 19.9098 28.7623 20.2017C27.765 20.4936 26.8834 21.0889 26.2402 21.905M26.8335 28.3333H10.1668M26.8335 28.3333V25C26.8335 23.9066 26.6235 22.8616 26.2402 21.905M26.2402 21.905C25.6212 20.3582 24.5531 19.0324 23.1735 18.0985C21.7939 17.1646 20.1661 16.6655 18.5002 16.6655C16.8342 16.6655 15.2064 17.1646 13.8268 18.0985C12.4472 19.0324 11.3791 20.3582 10.7602 21.905M10.1668 28.3333H1.8335V25C1.83357 23.9608 2.15739 22.9476 2.75993 22.101C3.36248 21.2544 4.21381 20.6166 5.19558 20.2762C6.17735 19.9358 7.24079 19.9098 8.23806 20.2017C9.23533 20.4936 10.1169 21.0889 10.7602 21.905M10.1668 28.3333V25C10.1668 23.9066 10.3768 22.8616 10.7602 21.905M23.5002 6.66663C23.5002 7.99271 22.9734 9.26448 22.0357 10.2022C21.098 11.1398 19.8262 11.6666 18.5002 11.6666C17.1741 11.6666 15.9023 11.1398 14.9646 10.2022C14.0269 9.26448 13.5002 7.99271 13.5002 6.66663C13.5002 5.34054 14.0269 4.06877 14.9646 3.13109C15.9023 2.19341 17.1741 1.66663 18.5002 1.66663C19.8262 1.66663 21.098 2.19341 22.0357 3.13109C22.9734 4.06877 23.5002 5.34054 23.5002 6.66663ZM33.5002 11.6666C33.5002 12.5507 33.149 13.3985 32.5239 14.0236C31.8987 14.6488 31.0509 15 30.1668 15C29.2828 15 28.4349 14.6488 27.8098 14.0236C27.1847 13.3985 26.8335 12.5507 26.8335 11.6666C26.8335 10.7826 27.1847 9.93473 27.8098 9.3096C28.4349 8.68448 29.2828 8.33329 30.1668 8.33329C31.0509 8.33329 31.8987 8.68448 32.5239 9.3096C33.149 9.93473 33.5002 10.7826 33.5002 11.6666ZM10.1668 11.6666C10.1668 12.5507 9.81564 13.3985 9.19052 14.0236C8.5654 14.6488 7.71755 15 6.8335 15C5.94944 15 5.10159 14.6488 4.47647 14.0236C3.85135 13.3985 3.50016 12.5507 3.50016 11.6666C3.50016 10.7826 3.85135 9.93473 4.47647 9.3096C5.10159 8.68448 5.94944 8.33329 6.8335 8.33329C7.71755 8.33329 8.5654 8.68448 9.19052 9.3096C9.81564 9.93473 10.1668 10.7826 10.1668 11.6666Z" stroke="black" stroke-width="2" stroke-linecap="round" stroke-linejoin="round"/>
</svg>
