<svg width="31" height="30" viewBox="0 0 31 30" fill="none" xmlns="http://www.w3.org/2000/svg">
<g clip-path="url(#clip0_3104_9405)">
<path d="M21.75 25H28V22.5C27.9999 21.7207 27.7571 20.9607 27.3052 20.3258C26.8533 19.6909 26.2148 19.2125 25.4784 18.9572C24.7421 18.7019 23.9445 18.6823 23.1966 18.9013C22.4486 19.1202 21.7875 19.5667 21.305 20.1787M21.75 25H9.25M21.75 25V22.5C21.75 21.68 21.5925 20.8962 21.305 20.1787M21.305 20.1787C20.8408 19.0187 20.0397 18.0243 19.005 17.3239C17.9703 16.6235 16.7495 16.2491 15.5 16.2491C14.2505 16.2491 13.0297 16.6235 11.995 17.3239C10.9603 18.0243 10.1592 19.0187 9.695 20.1787M9.25 25H3V22.5C3.00006 21.7207 3.24292 20.9607 3.69483 20.3258C4.14673 19.6909 4.78523 19.2125 5.52156 18.9572C6.25789 18.7019 7.05547 18.6823 7.80342 18.9013C8.55137 19.1202 9.21254 19.5667 9.695 20.1787M9.25 25V22.5C9.25 21.68 9.4075 20.8962 9.695 20.1787M19.25 8.75C19.25 9.74456 18.8549 10.6984 18.1517 11.4017C17.4484 12.1049 16.4946 12.5 15.5 12.5C14.5054 12.5 13.5516 12.1049 12.8483 11.4017C12.1451 10.6984 11.75 9.74456 11.75 8.75C11.75 7.75544 12.1451 6.80161 12.8483 6.09835C13.5516 5.39509 14.5054 5 15.5 5C16.4946 5 17.4484 5.39509 18.1517 6.09835C18.8549 6.80161 19.25 7.75544 19.25 8.75ZM26.75 12.5C26.75 13.163 26.4866 13.7989 26.0178 14.2678C25.5489 14.7366 24.913 15 24.25 15C23.587 15 22.9511 14.7366 22.4822 14.2678C22.0134 13.7989 21.75 13.163 21.75 12.5C21.75 11.837 22.0134 11.2011 22.4822 10.7322C22.9511 10.2634 23.587 10 24.25 10C24.913 10 25.5489 10.2634 26.0178 10.7322C26.4866 11.2011 26.75 11.837 26.75 12.5ZM9.25 12.5C9.25 13.163 8.98661 13.7989 8.51777 14.2678C8.04893 14.7366 7.41304 15 6.75 15C6.08696 15 5.45107 14.7366 4.98223 14.2678C4.51339 13.7989 4.25 13.163 4.25 12.5C4.25 11.837 4.51339 11.2011 4.98223 10.7322C5.45107 10.2634 6.08696 10 6.75 10C7.41304 10 8.04893 10.2634 8.51777 10.7322C8.98661 11.2011 9.25 11.837 9.25 12.5Z" stroke="#7D8592" stroke-width="2" stroke-linecap="round" stroke-linejoin="round"/>
</g>
<defs>
<clipPath id="clip0_3104_9405">
<rect width="30" height="30" fill="white" transform="translate(0.5)"/>
</clipPath>
</defs>
</svg>
